<svg xmlns="http://www.w3.org/2000/svg" width="60%" height="60%" viewBox="0 0 178.31 111.72"><defs><style>.cls-1{fill:#081829;}.cls-2{fill:#13661e;}.cls-3{fill:#2cda6c;}.cls-11,.cls-4{fill:#c5ffff;}.cls-5{fill:#1f6639;}.cls-6{fill:#996e5c;}.cls-7{fill:#804933;}.cls-8{fill:#131111;}.cls-9{fill:#393434;}.cls-10{fill:none;stroke:#4a3d33;stroke-miterlimit:10;stroke-width:0.25px;}.cls-11{font-size:32.12px;font-family:CCMonsterMashWorn;}</style></defs><g id="Calque_2" data-name="Calque 2"><g id="Calque_4" data-name="Calque 4"><polygon class="cls-1" points="178.31 55.23 161.8 83.82 161.8 45.7 178.31 55.23"/><polygon class="cls-1" points="161.8 83.82 161.8 96.29 154.6 96.29 161.8 83.82"/><polygon class="cls-1" points="161.8 45.7 161.8 83.82 154.6 96.29 123.41 96.29 103.45 96.29 108.44 87.65 108.45 87.64 131.66 87.64 131.66 71.06 144.41 67.8 135.59 33.28 134.77 30.09 140.29 33.28 161.8 45.7"/><polygon class="cls-1" points="154.6 96.29 146.81 109.8 123.41 96.29 154.6 96.29"/><polygon class="cls-1" points="135.59 33.28 144.41 67.8 131.66 71.06 131.66 33.28 122.64 33.28 122.64 24.63 122.64 23.08 125.31 24.63 131.66 24.63 131.66 28.29 134.77 30.09 135.59 33.28"/><polygon class="cls-1" points="128.81 6.75 134.77 30.09 131.66 28.29 131.66 24.63 125.31 24.63 122.64 23.08 122.64 16.84 89.3 16.84 72.93 16.84 82.65 0 104.92 12.85 128.81 6.75"/><polygon class="cls-1" points="131.66 71.06 131.66 87.64 108.45 87.64 112.94 79.85 115.66 75.14 122.64 63.06 127.16 55.23 122.64 52.61 122.64 33.28 131.66 33.28 131.66 71.06"/><polygon class="cls-1" points="127.16 55.23 122.64 63.06 115.66 75.14 112.94 79.85 97.22 79.85 94.94 79.85 63.2 61.53 69.65 33.28 89.14 33.28 122.64 33.28 122.64 52.61 127.16 55.23"/><polygon class="cls-1" points="122.64 24.63 122.64 33.28 89.14 33.28 74.16 24.63 122.64 24.63"/><polygon class="cls-1" points="122.64 23.08 122.64 24.63 74.16 24.63 69.87 22.15 70.1 21.75 89.3 16.84 122.64 16.84 122.64 23.08"/><polygon class="cls-1" points="112.94 79.85 108.45 87.64 108.43 87.64 66.75 87.64 60.18 89.32 51.35 91.57 37.39 95.14 35.48 87.64 21.2 87.64 21.2 79.85 21.2 61.05 29.14 62.86 51.35 67.92 51.35 79.85 94.94 79.85 95.64 80.26 97.22 79.85 112.94 79.85"/><polygon class="cls-1" points="108.44 87.65 103.45 96.29 95.66 109.8 72.26 96.29 60.18 89.32 66.75 87.64 108.43 87.64 108.44 87.65"/><polygon class="cls-1" points="97.22 79.85 95.64 80.26 94.94 79.85 97.22 79.85"/><polygon class="cls-1" points="94.94 79.85 51.35 79.85 51.35 67.92 51.35 54.69 63.2 61.53 94.94 79.85"/><polygon class="cls-1" points="89.3 16.84 70.1 21.75 69.87 22.15 74.16 24.63 70.44 24.63 68.67 24.22 68.44 24.63 29.04 24.63 30.82 16.84 60.68 16.84 72.93 16.84 89.3 16.84"/><polygon class="cls-1" points="89.14 33.28 69.65 33.28 71.56 24.88 70.44 24.63 74.16 24.63 89.14 33.28"/><polygon class="cls-1" points="72.26 96.29 51.35 96.29 51.35 91.57 60.18 89.32 72.26 96.29"/><path class="cls-1" d="M71.56,24.88l-1.91,8.4H51.35V54.22l-.2.35.2.11V67.92l-22.2-5.06L21.2,61.05V24.63H70.44ZM24.48,44.61l2.72-11.9-5.4,1.38Z"/><polygon class="cls-1" points="70.44 24.63 68.44 24.63 68.67 24.22 70.44 24.63"/><polygon class="cls-1" points="69.65 33.28 63.2 61.53 51.35 54.69 51.35 54.22 51.35 33.28 69.65 33.28"/><polygon class="cls-1" points="60.68 16.84 30.82 16.84 29.04 24.63 21.2 24.63 21.2 58.99 20.76 60.94 21.2 61.05 21.2 79.85 12.18 79.85 12.18 61.6 0 54.57 12.18 33.46 12.18 16.84 21.78 16.84 31.5 0 60.68 16.84"/><polygon class="cls-1" points="27.2 32.71 24.48 44.61 21.8 34.09 27.2 32.71"/><polygon class="cls-1" points="21.2 58.99 21.2 61.05 20.76 60.94 21.2 58.99"/><polygon class="cls-2" points="156.2 89.69 158.22 51.93 138.99 42.6 164.66 47.78 156.2 89.69"/><polygon class="cls-2" points="77.66 52.48 96.53 19.72 83.6 2.7 104.15 18.93 77.66 52.48"/><polygon class="cls-2" points="76.6 83.34 114.14 87.79 124.69 69.2 117.87 94.49 76.6 83.34"/><polygon class="cls-2" points="22.63 42.11 33.84 78.21 55.12 80.29 29.24 84.34 22.63 42.11"/><polygon class="cls-3" points="58.01 19.2 68.67 18.72 69.25 32.36 36.13 4.93 58.01 19.2"/><polygon class="cls-3" points="82.47 94.56 93.13 94.09 93.71 107.72 60.59 80.3 82.47 94.56"/><polygon class="cls-3" points="141.9 91.55 135.4 100.01 146.24 108.3 142.74 65.45 141.9 91.55"/><polygon class="cls-3" points="15.08 30.54 13.87 19.93 27.43 18.41 2.37 53.34 15.08 30.54"/><polygon class="cls-3" points="120.07 23.87 114.84 14.56 126.75 7.9 117.2 49.82 120.07 23.87"/><polygon class="cls-4" points="55.92 90.23 54.19 93.69 54.93 84.8 53.2 87.51 55.92 90.23"/><polygon class="cls-4" points="115.22 17.09 113.49 20.55 114.23 11.66 112.51 14.37 115.22 17.09"/><polygon class="cls-4" points="141.3 63.91 141.51 70.02 139.77 61.26 145.47 65.03 141.3 63.91"/><polygon class="cls-4" points="33.07 3.62 33.28 9.73 31.54 0.97 37.24 4.73 33.07 3.62"/></g><g id="Calque_5" data-name="Calque 5"><polygon class="cls-3" points="153.12 8.05 157.14 14.65 81.13 85.83 79.95 86.93 72.46 74.62 74.39 73.03 153.12 8.05"/><polygon class="cls-5" points="157.14 14.65 155.84 19.96 75.52 98.97 79.95 86.93 81.13 85.83 157.14 14.65"/><polygon class="cls-3" points="153.12 8.05 74.39 73.03 72.46 74.62 60.26 73.89 60.24 73.89 148.08 7.2 153.12 8.05"/><path class="cls-6" d="M72.46,74.62,80,86.93,55.38,102.56l-1.29.83h0l-.1-.18-.3-.47-.1-.14c0-.07-.09-.12-.13-.19l-.12-.16c-.09-.13-.19-.25-.29-.38l0,0-.28-.33s0,0,0-.06l-.43-.48a10.52,10.52,0,0,0-.76-.73c-.13-.13-.27-.25-.41-.37l.13-.17.06-.06,0,0,0,0s0,0,0-.05l2.55-3,.71-.85,1.19-1.4.21-.25L59,90.5l1.69-2L63.64,85l.44-.51,1-1.19.27-.32,2.2-2.6.21-.25.81-1c.07-.09.15-.16.21-.25l.78-.92.29-.34,0,0,.16-.2,1-1.2.13-.15c.21-.25.39-.47.56-.66l.09-.11C72.2,74.93,72.41,74.66,72.46,74.62Z"/><path class="cls-7" d="M80,86.93,75.52,99,56.32,107l-1.59.63-.36.11a8.76,8.76,0,0,0,.58-.87,10.89,10.89,0,0,0,.22-1.11,11.67,11.67,0,0,0-1.08-2.41l1.29-.83Z"/><path class="cls-6" d="M60.26,73.9l12.2.72s-.26.31-.63.74l-.09.11c-.17.19-.35.41-.56.66l-.13.15-1,1.2-.16.2,0,0-.29.34-.78.92c-.06.09-.14.16-.21.25l-.81,1-.21.25L65.35,83l-.27.32-1,1.19-.44.51L60.7,88.51c-.57.67-1.14,1.33-1.69,2L56.07,94l-.21.25-1.19,1.4-.71.85-2.55,3s0,0,0,.05l0,0,0,0-.06.06-.13.17-.34-.28a15.47,15.47,0,0,0-4.36-.21l.83-1.93L49,94Z"/><path class="cls-8" d="M55.17,105.8a10.89,10.89,0,0,1-.22,1.11,8.76,8.76,0,0,1-.58.87l-13.09,3.81a0,0,0,0,1-.05,0h0l12.86-8.18A11.67,11.67,0,0,1,55.17,105.8Z"/><path class="cls-9" d="M54,103.2a1.74,1.74,0,0,0,.1.19l-12.86,8.18h0l0,0a0,0,0,0,1,0,0L51.1,99.86c.14.12.28.24.41.37a10.52,10.52,0,0,1,.76.73l.43.48s0,0,0,.06l.3.36c.1.13.2.25.29.38l.12.16c0,.07.09.12.13.19l.1.14Z"/><path class="cls-9" d="M53,101.83l0,0-.3-.36Z"/><path class="cls-9" d="M51.1,99.86l-9.89,11.69a0,0,0,0,0,0,0s0,0,0-.07L46.4,99.37a15.47,15.47,0,0,1,4.36.21Z"/><line class="cls-10" x1="153.12" y1="8.05" x2="157.14" y2="14.65"/><polyline class="cls-10" points="60.26 73.89 60.24 73.89 148.08 7.2 153.12 8.05 74.39 73.03 72.46 74.62"/><polyline class="cls-10" points="79.95 86.93 81.13 85.83 157.14 14.65 155.84 19.96 75.52 98.97"/><polyline class="cls-10" points="79.95 86.93 75.52 98.97 56.32 107.04 54.73 107.67 54.37 107.78"/><polyline class="cls-10" points="46.4 99.37 47.23 97.44 49 94.02 60.26 73.89 72.46 74.62"/><path class="cls-10" d="M60.7,88.51c-.57.67-1.14,1.33-1.69,2"/><path class="cls-10" d="M51.1,99.86l.13-.17.06-.06,0,0,0,0s0,0,0-.05l2.55-3,.71-.85,1.19-1.4.21-.25L59,90.5l1.69-2L63.64,85l.44-.51,1-1.19.27-.32,2.2-2.6.21-.25.81-1c.07-.09.15-.16.21-.25l.78-.92.29-.34,0,0,.16-.2,1-1.2.13-.15c.21-.25.39-.47.56-.66l.09-.11c.37-.43.58-.7.63-.74L80,86.93,55.38,102.56l-1.29.83"/><path class="cls-10" d="M54,103.2l.1.18h0"/><path class="cls-10" d="M41.2,111.56s0,0,0-.07L46.4,99.37a15.47,15.47,0,0,1,4.36.21l.34.28"/><path class="cls-10" d="M41.23,111.58l0,0a0,0,0,0,1,0,0L51.1,99.86c.14.12.28.24.41.37a10.52,10.52,0,0,1,.76.73l.43.48s0,0,0,.06"/><path class="cls-10" d="M54,103.2a1.74,1.74,0,0,0,.1.19"/><path class="cls-10" d="M53.05,101.86l-.3-.36.28.33,0,0c.1.13.2.25.29.38l.12.16c0,.07.09.12.13.19l.1.14.3.47"/><path class="cls-10" d="M54.09,103.39a11.67,11.67,0,0,1,1.08,2.41,10.89,10.89,0,0,1-.22,1.11,8.76,8.76,0,0,1-.58.87l-13.09,3.81a0,0,0,0,1-.05,0h0Z"/><text class="cls-11" transform="translate(20.1 64.45)">Graph-It</text></g></g></svg>
