<svg id="Calque_1" data-name="Calque 1" xmlns="http://www.w3.org/2000/svg" width="100%" height="100%" viewBox="0 0 1920 1080"><defs><style>.cls-1{fill:#fff;}</style></defs><path class="cls-1" d="M2241,863.5c0,232.79-221,421.5-493.68,421.5-122.36,0-234.32-38-320.57-100.94C1349.54,1330.81,1176.85,1433,976.21,1433c-223.1,0-411.62-126.34-472.79-299.79-89,74.12-210.6,119.79-344.74,119.79C-114,1253-335,1064.29-335,831.5S-114,410,158.68,410c223.1,0,411.62,126.34,472.78,299.79C720.44,635.67,842.07,590,976.21,590c122.35,0,234.32,38,320.56,100.94C1374,544.19,1546.67,442,1747.32,442,2020,442,2241,630.71,2241,863.5Z"/></svg>
