<svg xmlns="http://www.w3.org/2000/svg" viewBox="0 0 309.8 278.87"><defs><style>.cls-1{fill:#2cda6c;}.cls-2{fill:#1f6639;}.cls-3{fill:#996e5c;}.cls-4{fill:#804933;}.cls-5{fill:#131111;}.cls-6{fill:#393434;}.cls-7{fill:none;stroke:#4a3d33;stroke-miterlimit:10;stroke-width:0.25px;}</style></defs><g id="Calque_2" data-name="Calque 2"><g id="Calque_1-2" data-name="Calque 1"><polygon class="cls-1" points="298.86 2.4 309.58 20.02 106.72 209.99 103.57 212.93 83.57 180.06 88.73 175.81 298.86 2.4"/><polygon class="cls-2" points="309.58 20.02 306.13 34.18 91.75 245.05 103.57 212.93 106.72 209.99 309.58 20.02"/><polygon class="cls-1" points="298.86 2.4 88.73 175.81 83.57 180.06 51.02 178.13 50.96 178.12 285.41 0.13 298.86 2.4"/><path class="cls-3" d="M83.57,180.06l20,32.87L38,254.65c-.47.3-2.9,1.84-3.44,2.17l-.29-.47c-.26-.42-.52-.84-.8-1.25a3.62,3.62,0,0,0-.26-.38,3.7,3.7,0,0,0-.35-.5c-.1-.15-.21-.29-.32-.44-.25-.37-.54-.73-.83-1.08s-.48-.61-.74-.9a.65.65,0,0,0-.12-.15l-1.14-1.28c-.66-.67-1.34-1.33-2-2-.37-.35-.74-.66-1.12-1l.36-.45a1,1,0,0,0,.14-.17.73.73,0,0,0,.08-.09.61.61,0,0,0,.11-.14,1.66,1.66,0,0,1,.13-.14c1-1.14,3.43-4,6.8-8,.62-.71,1.25-1.47,1.91-2.25l3.17-3.75c.2-.22.38-.44.57-.68l7.85-9.27,4.5-5.32c2.61-3.08,5.27-6.2,7.85-9.27.39-.45.78-.92,1.17-1.36.91-1.08,1.79-2.14,2.68-3.17.23-.29.48-.58.73-.87,2-2.42,4-4.75,5.87-6.93.18-.23.37-.45.55-.67.74-.88,1.45-1.73,2.17-2.54.18-.24.37-.44.56-.68.72-.85,1.4-1.67,2.06-2.44.26-.3.53-.62.77-.92l.06,0c.15-.2.3-.36.45-.54,1-1.18,1.9-2.27,2.71-3.22l.34-.39c.55-.66,1-1.26,1.49-1.75.09-.11.18-.21.24-.3Z"/><path class="cls-4" d="M103.57,212.93,91.75,245.05,40.5,266.59l-4.22,1.66-1,.31a20.69,20.69,0,0,0,1.57-2.33,29.33,29.33,0,0,0,.57-2.94,30.4,30.4,0,0,0-2.88-6.46h0c.54-.33,3-1.87,3.44-2.17Z"/><path class="cls-3" d="M51,178.13l32.54,1.93-1.68,2c-.06.09-.15.19-.24.3-.44.49-.94,1.09-1.49,1.75l-.34.39c-.81,1-1.72,2-2.71,3.22-.15.18-.3.34-.45.54l-.06,0c-.24.3-.51.62-.77.92-.66.77-1.34,1.59-2.06,2.44-.19.24-.38.44-.56.68-.72.81-1.43,1.66-2.17,2.54-.18.22-.37.44-.55.67-1.86,2.18-3.82,4.51-5.87,6.93-.25.29-.5.58-.73.87-.89,1-1.77,2.09-2.68,3.17-.39.44-.78.91-1.17,1.36-2.58,3.07-5.24,6.19-7.85,9.27-1.52,1.8-3,3.57-4.5,5.32l-7.85,9.27c-.19.24-.37.46-.57.68l-3.17,3.75c-.66.78-1.29,1.54-1.91,2.25-3.37,4-5.84,6.9-6.8,8a1.66,1.66,0,0,0-.13.14.61.61,0,0,1-.11.14.73.73,0,0,1-.08.09,1,1,0,0,1-.14.17l-.36.45h0c-.29-.26-.58-.49-.89-.74A41.68,41.68,0,0,0,14,246.11L16.22,241,21,231.82Z"/><path class="cls-5" d="M37.43,263.29a29.33,29.33,0,0,1-.57,2.94,20.69,20.69,0,0,1-1.57,2.33L.36,278.74a.16.16,0,0,1-.15,0h0l34.32-21.86A30.4,30.4,0,0,1,37.43,263.29Z"/><path class="cls-6" d="M34.27,256.35c.1.17.18.33.28.48L.23,278.69h0s0,0,0,0h0v0l26.4-31.19h0c.38.32.75.63,1.12,1,.68.63,1.36,1.29,2,2l1.14,1.28a.65.65,0,0,1,.12.15c.26.29.51.59.74.9s.58.71.83,1.08c.11.15.22.29.32.44a3.7,3.7,0,0,1,.35.5,3.62,3.62,0,0,1,.26.38C33.75,255.51,34,255.93,34.27,256.35Z"/><path class="cls-6" d="M26.56,247.43.16,278.62v0a.19.19,0,0,1,0-.18L14,246.11a41.68,41.68,0,0,1,11.66.58C26,246.94,26.27,247.17,26.56,247.43Z"/><line class="cls-7" x1="298.86" y1="2.4" x2="309.58" y2="20.02"/><polyline class="cls-7" points="51.02 178.13 50.96 178.12 285.41 0.13 298.86 2.4 88.73 175.81 83.57 180.06"/><polyline class="cls-7" points="103.57 212.93 106.72 209.99 309.58 20.02 306.13 34.18 91.75 245.05"/><polyline class="cls-7" points="103.57 212.93 91.75 245.05 40.5 266.59 36.28 268.25 35.29 268.56"/><polyline class="cls-7" points="14.01 246.11 16.23 240.97 20.95 231.82 51.02 178.13 83.57 180.06"/><path class="cls-7" d="M52.19,217.13c-1.52,1.8-3,3.57-4.5,5.32"/><path class="cls-7" d="M26.57,247.43l.36-.45a1,1,0,0,0,.14-.17.73.73,0,0,0,.08-.09.61.61,0,0,0,.11-.14,1.66,1.66,0,0,1,.13-.14c1-1.14,3.43-4,6.8-8,.62-.71,1.25-1.47,1.91-2.25l3.17-3.75c.2-.22.38-.44.57-.68l7.85-9.27,4.5-5.32c2.61-3.08,5.27-6.2,7.85-9.27.39-.45.78-.92,1.17-1.36.91-1.08,1.79-2.14,2.68-3.17.23-.29.48-.58.73-.87,2-2.42,4-4.75,5.87-6.93.18-.23.37-.45.55-.67.74-.88,1.45-1.73,2.17-2.54.18-.24.37-.44.56-.68.72-.85,1.4-1.67,2.06-2.44.26-.3.53-.62.77-.92l.06,0c.15-.2.3-.36.45-.54,1-1.18,1.9-2.27,2.71-3.22l.34-.39c.55-.66,1-1.26,1.49-1.75.09-.11.18-.21.24-.3l1.68-2,20,32.87L38,254.65c-.47.3-2.9,1.84-3.44,2.17"/><path class="cls-7" d="M34.27,256.35l.29.47h0"/><path class="cls-7" d="M.16,278.65a.19.19,0,0,1,0-.18L14,246.11a41.68,41.68,0,0,1,11.66.58c.31.25.6.48.89.74"/><path class="cls-7" d="M.21,278.7s0,0,0,0h0v0l26.4-31.19h0"/><path class="cls-7" d="M34.27,256.35c.1.17.18.33.28.48"/><path class="cls-7" d="M34.27,256.35c-.26-.42-.52-.84-.8-1.25a3.62,3.62,0,0,0-.26-.38,3.7,3.7,0,0,0-.35-.5c-.1-.15-.21-.29-.32-.44-.25-.37-.54-.73-.83-1.08s-.48-.61-.74-.9a.65.65,0,0,0-.12-.15l-1.14-1.28c-.66-.67-1.34-1.33-2-2-.37-.35-.74-.66-1.12-1"/><path class="cls-7" d="M34.55,256.83a30.4,30.4,0,0,1,2.88,6.46,29.33,29.33,0,0,1-.57,2.94,20.69,20.69,0,0,1-1.57,2.33L.36,278.74a.16.16,0,0,1-.15,0h0Z"/></g></g></svg>