<svg xmlns="http://www.w3.org/2000/svg" width="10%" height="10%" font-family="CCMonsterMashWorn" viewBox="0 0 178.99 112.06"><defs><style>.cls-1{fill:#081829;}.cls-12,.cls-2{fill:none;}.cls-2,.cls-3,.cls-4,.cls-5{stroke:#081829;stroke-width:0.5px;}.cls-12,.cls-2,.cls-3,.cls-4,.cls-5{stroke-miterlimit:10;}.cls-3{fill:#13661e;}.cls-4,.cls-6{fill:#2cda6c;}.cls-13,.cls-5{fill:#c5ffff;}.cls-7{fill:#1f6639;}.cls-8{fill:#996e5c;}.cls-9{fill:#804933;}.cls-10{fill:#131111;}.cls-11{fill:#393434;}.cls-12{stroke:#4a3d33;stroke-width:0.25px;}.cls-13{font-size:32.12px;font-family:CCMonsterMashWorn;}</style></defs><g id="Calque_2" data-name="Calque 2"><g id="Calque_4" data-name="Calque 4"><polygon class="cls-1" points="178.65 55.57 162.14 84.16 162.14 46.04 178.65 55.57"/><polygon class="cls-1" points="162.14 84.16 162.14 96.63 154.94 96.63 162.14 84.16"/><polygon class="cls-1" points="162.14 46.04 162.14 84.16 154.94 96.63 123.75 96.63 103.8 96.63 108.78 87.99 108.79 87.98 132 87.98 132 71.4 144.75 68.14 135.93 33.62 135.12 30.43 140.63 33.62 162.14 46.04"/><polygon class="cls-1" points="154.94 96.63 147.15 110.14 123.75 96.63 154.94 96.63"/><polygon class="cls-1" points="135.93 33.62 144.75 68.14 132 71.4 132 33.62 122.98 33.62 122.98 24.97 122.98 23.43 125.65 24.97 132 24.97 132 28.63 135.12 30.43 135.93 33.62"/><polygon class="cls-1" points="129.15 7.09 135.12 30.43 132 28.63 132 24.97 125.65 24.97 122.98 23.43 122.98 17.19 89.64 17.19 73.27 17.19 83 0.34 105.26 13.2 129.15 7.09"/><polygon class="cls-1" points="132 71.4 132 87.98 108.79 87.98 113.28 80.2 116 75.48 122.98 63.4 127.5 55.57 122.98 52.96 122.98 33.62 132 33.62 132 71.4"/><polygon class="cls-1" points="127.5 55.57 122.98 63.4 116 75.48 113.28 80.2 97.56 80.2 95.29 80.2 63.55 61.87 69.99 33.62 89.48 33.62 122.98 33.62 122.98 52.96 127.5 55.57"/><polygon class="cls-1" points="122.98 24.97 122.98 33.62 89.48 33.62 74.5 24.97 122.98 24.97"/><polygon class="cls-1" points="122.98 23.43 122.98 24.97 74.5 24.97 70.21 22.49 70.44 22.09 89.64 17.19 122.98 17.19 122.98 23.43"/><polygon class="cls-1" points="113.28 80.2 108.79 87.98 108.77 87.98 67.09 87.98 60.52 89.66 51.69 91.91 37.73 95.48 35.82 87.98 21.55 87.98 21.55 80.2 21.55 61.39 29.49 63.2 51.69 68.26 51.69 80.2 95.29 80.2 95.98 80.6 97.56 80.2 113.28 80.2"/><polygon class="cls-1" points="108.78 87.99 103.8 96.63 96 110.14 72.6 96.63 60.52 89.66 67.09 87.98 108.77 87.98 108.78 87.99"/><polygon class="cls-1" points="97.56 80.2 95.98 80.6 95.29 80.2 97.56 80.2"/><polygon class="cls-1" points="95.29 80.2 51.69 80.2 51.69 68.26 51.69 55.03 63.55 61.87 95.29 80.2"/><polygon class="cls-1" points="89.64 17.19 70.44 22.09 70.21 22.49 74.5 24.97 70.79 24.97 69.01 24.56 68.78 24.97 29.38 24.97 31.16 17.19 61.02 17.19 73.27 17.19 89.64 17.19"/><polygon class="cls-1" points="89.48 33.62 69.99 33.62 71.9 25.22 70.79 24.97 74.5 24.97 89.48 33.62"/><polygon class="cls-1" points="72.6 96.63 51.69 96.63 51.69 91.91 60.52 89.66 72.6 96.63"/><path class="cls-1" d="M71.9,25.22,70,33.62H51.69V54.56l-.2.35.2.12V68.26L29.49,63.2l-7.95-1.81V25H70.79ZM24.83,45l2.71-11.9-5.4,1.38Z"/><polygon class="cls-1" points="70.79 24.97 68.78 24.97 69.01 24.56 70.79 24.97"/><polygon class="cls-1" points="69.99 33.62 63.55 61.87 51.69 55.03 51.69 54.56 51.69 33.62 69.99 33.62"/><polygon class="cls-1" points="61.02 17.19 31.16 17.19 29.38 24.97 21.55 24.97 21.55 59.34 21.1 61.28 21.55 61.39 21.55 80.2 12.53 80.2 12.53 61.95 0.34 54.91 12.53 33.81 12.53 17.19 22.12 17.19 31.85 0.34 61.02 17.19"/><polygon class="cls-1" points="27.54 33.05 24.83 44.95 22.14 34.43 27.54 33.05"/><polygon class="cls-1" points="21.55 59.34 21.55 61.39 21.1 61.28 21.55 59.34"/><polyline class="cls-2" points="72.6 96.63 51.69 96.63 51.69 91.91"/><polyline class="cls-2" points="162.14 84.16 162.14 96.63 154.94 96.63"/><polyline class="cls-2" points="73.27 17.19 83 0.34 105.26 13.2 129.15 7.09 135.12 30.43"/><polyline class="cls-2" points="122.98 23.43 125.65 24.97 132 24.97 132 28.63 135.12 30.43"/><polyline class="cls-2" points="132 71.4 144.75 68.14 135.93 33.62 135.12 30.43 140.63 33.62 162.14 46.04"/><line class="cls-2" x1="123.75" y1="96.63" x2="103.8" y2="96.63"/><line class="cls-2" x1="162.14" y1="84.16" x2="154.95" y2="96.63"/><polygon class="cls-2" points="154.94 96.63 147.15 110.14 123.75 96.63 154.94 96.63"/><polygon class="cls-2" points="162.14 46.04 178.65 55.57 162.14 84.16 162.14 46.04"/><line class="cls-2" x1="108.78" y1="87.99" x2="108.79" y2="87.98"/><line class="cls-2" x1="89.48" y1="33.62" x2="74.51" y2="24.97"/><polyline class="cls-2" points="108.77 87.98 108.78 87.99 103.8 96.63 96 110.14 72.6 96.63 60.52 89.66"/><polyline class="cls-2" points="108.79 87.98 108.77 87.98 67.09 87.98 60.52 89.66 51.69 91.91 37.73 95.48 35.82 87.98 21.55 87.98 21.55 80.2"/><polyline class="cls-2" points="21.55 61.39 21.55 80.2 12.53 80.2 12.53 61.95 0.34 54.91 12.53 33.81 12.53 17.19 22.12 17.19 31.85 0.34 61.02 17.19"/><polyline class="cls-2" points="89.64 17.19 122.98 17.19 122.98 23.43 122.98 24.97"/><polyline class="cls-2" points="122.98 33.62 132 33.62 132 71.4 132 87.98 108.79 87.98 113.28 80.2"/><polyline class="cls-2" points="122.98 33.62 122.98 52.96 127.5 55.57 122.98 63.4 116 75.48 113.28 80.2 97.56 80.2"/><polyline class="cls-2" points="63.55 61.87 95.29 80.2 51.69 80.2 51.69 68.26"/><polyline class="cls-2" points="74.5 24.97 122.98 24.97 122.98 33.62 89.48 33.62 69.99 33.62"/><polygon class="cls-2" points="97.56 80.2 95.98 80.6 95.29 80.2 97.56 80.2"/><polyline class="cls-2" points="21.55 61.39 21.1 61.28 21.55 59.34"/><polyline class="cls-2" points="29.38 24.97 31.16 17.19 61.02 17.19 73.27 17.19 89.64 17.19 70.44 22.09 70.21 22.49 74.5 24.97 70.79 24.97"/><polyline class="cls-2" points="69.99 33.62 63.55 61.87 51.69 55.03"/><line class="cls-2" x1="51.69" y1="54.56" x2="51.69" y2="55.03"/><polyline class="cls-2" points="68.78 24.97 29.38 24.97 21.55 24.97 21.55 59.34 21.55 61.39 29.49 63.2 51.69 68.26 51.69 55.03 51.49 54.91 51.69 54.56 51.69 33.62 69.99 33.62 71.9 25.22 70.79 24.97"/><polygon class="cls-2" points="24.83 44.95 22.14 34.43 27.54 33.05 24.83 44.95"/><polygon class="cls-2" points="70.79 24.97 68.78 24.97 69.01 24.56 70.79 24.97"/><polygon class="cls-3" points="156.54 90.03 158.56 52.27 139.33 42.94 165 48.13 156.54 90.03"/><polygon class="cls-3" points="78 52.83 96.87 20.06 83.94 3.04 104.5 19.27 78 52.83"/><polygon class="cls-3" points="76.94 83.69 114.48 88.13 125.03 69.54 118.21 94.83 76.94 83.69"/><polygon class="cls-3" points="22.97 42.45 34.18 78.55 55.46 80.63 29.58 84.68 22.97 42.45"/><polygon class="cls-4" points="58.35 19.54 69.01 19.07 69.59 32.7 36.47 5.28 58.35 19.54"/><polygon class="cls-4" points="82.81 94.91 93.47 94.43 94.05 108.06 60.94 80.64 82.81 94.91"/><polygon class="cls-4" points="142.24 91.89 135.74 100.35 146.58 108.64 143.08 65.79 142.24 91.89"/><polygon class="cls-4" points="15.42 30.88 14.21 20.27 27.77 18.75 2.71 53.69 15.42 30.88"/><polygon class="cls-4" points="120.41 24.21 115.18 14.91 127.09 8.24 117.54 50.16 120.41 24.21"/><polygon class="cls-5" points="56.26 90.57 54.53 94.03 55.27 85.14 53.54 87.86 56.26 90.57"/><polygon class="cls-5" points="115.56 17.43 113.84 20.89 114.58 12 112.85 14.71 115.56 17.43"/><polygon class="cls-5" points="141.64 64.25 141.85 70.36 140.11 61.6 145.81 65.37 141.64 64.25"/><polygon class="cls-5" points="33.41 3.96 33.62 10.07 31.88 1.31 37.59 5.08 33.41 3.96"/></g><g id="Calque_5" data-name="Calque 5"><polygon class="cls-6" points="153.46 8.39 157.48 14.99 81.47 86.17 80.29 87.28 72.8 74.96 74.73 73.37 153.46 8.39"/><polygon class="cls-7" points="157.48 14.99 156.19 20.3 75.86 99.31 80.29 87.28 81.47 86.17 157.48 14.99"/><polygon class="cls-6" points="153.46 8.39 74.73 73.37 72.8 74.96 60.61 74.24 60.58 74.23 148.42 7.54 153.46 8.39"/><path class="cls-8" d="M72.8,75l7.49,12.32L55.72,102.91l-1.29.82h0l-.1-.18-.3-.46c0-.06-.07-.1-.1-.15s-.09-.12-.13-.18l-.12-.17c-.09-.13-.19-.25-.29-.37a.05.05,0,0,0,0,0l-.28-.33s0,0-.05-.06l-.43-.48c-.24-.25-.49-.5-.75-.73l-.42-.37.13-.17a.31.31,0,0,0,.06-.06l0,0a.11.11,0,0,0,0-.05s0,0,0,0l2.55-3L55,96l1.19-1.4.21-.25,2.94-3.48,1.69-2L64,85.38c.15-.17.29-.35.44-.51.34-.41.67-.81,1-1.19.09-.11.19-.22.27-.33l2.2-2.59.21-.26.81-1c.07-.09.15-.16.21-.25.28-.32.53-.63.78-.92l.29-.34,0,0,.16-.2,1-1.2.13-.15c.21-.25.39-.47.56-.66a.44.44,0,0,0,.09-.11C72.54,75.27,72.75,75,72.8,75Z"/><path class="cls-9" d="M80.29,87.28l-4.43,12-19.2,8.07-1.58.63-.37.11c.22-.29.41-.58.59-.87a10.34,10.34,0,0,0,.21-1.11,11.16,11.16,0,0,0-1.08-2.41l1.29-.82Z"/><path class="cls-8" d="M60.61,74.24,72.8,75s-.26.31-.63.74a.44.44,0,0,1-.09.11c-.17.19-.35.41-.56.66l-.13.15-1,1.2-.16.2,0,0-.29.34c-.25.29-.5.6-.78.92-.06.09-.14.16-.21.25l-.81,1-.21.26-2.2,2.59c-.08.11-.18.22-.27.33-.33.38-.66.78-1,1.19-.15.16-.29.34-.44.51L61,88.85l-1.69,2-2.94,3.48-.21.25L55,96l-.71.85-2.55,3s0,0,0,0a.11.11,0,0,1,0,.05l0,0a.31.31,0,0,1-.06.06l-.13.17-.34-.28a15.47,15.47,0,0,0-4.36-.21l.83-1.93,1.77-3.42Z"/><path class="cls-10" d="M55.51,106.14a10.34,10.34,0,0,1-.21,1.11c-.18.29-.37.58-.59.87l-13.09,3.81a0,0,0,0,1,0,0h0l12.86-8.18A11.16,11.16,0,0,1,55.51,106.14Z"/><path class="cls-11" d="M54.33,103.54c0,.07.07.13.1.19l-12.86,8.18h0l0,0a0,0,0,0,1,0,0l9.89-11.69.42.37c.26.23.51.48.75.73l.43.48s0,0,.05.06l.3.37c.1.12.2.24.29.37l.12.17c0,.06.09.11.13.18s.07.09.1.15Z"/><path class="cls-11" d="M53.37,102.17a.05.05,0,0,1,0,0l-.3-.37Z"/><path class="cls-11" d="M51.44,100.2l-9.89,11.69a0,0,0,0,0,0,0,.08.08,0,0,1,0-.07l5.2-12.12a15.47,15.47,0,0,1,4.36.21Z"/><line class="cls-12" x1="153.46" y1="8.39" x2="157.48" y2="14.99"/><polyline class="cls-12" points="60.61 74.24 60.58 74.23 148.42 7.54 153.46 8.39 74.73 73.37 72.8 74.96"/><polyline class="cls-12" points="80.29 87.28 81.47 86.17 157.48 14.99 156.19 20.3 75.86 99.31"/><polyline class="cls-12" points="80.29 87.28 75.86 99.31 56.66 107.38 55.08 108.01 54.71 108.12"/><polyline class="cls-12" points="46.74 99.71 47.57 97.78 49.34 94.36 60.61 74.24 72.8 74.96"/><path class="cls-12" d="M61,88.85l-1.69,2"/><path class="cls-12" d="M51.44,100.2l.13-.17a.31.31,0,0,0,.06-.06l0,0a.11.11,0,0,0,0-.05s0,0,0,0l2.55-3L55,96l1.19-1.4.21-.25,2.94-3.48,1.69-2L64,85.38c.15-.17.29-.35.44-.51.34-.41.67-.81,1-1.19.09-.11.19-.22.27-.33l2.2-2.59.21-.26.81-1c.07-.09.15-.16.21-.25.28-.32.53-.63.78-.92l.29-.34,0,0,.16-.2,1-1.2.13-.15c.21-.25.39-.47.56-.66a.44.44,0,0,0,.09-.11c.37-.43.58-.7.63-.74l7.49,12.32L55.72,102.91l-1.29.82"/><path class="cls-12" d="M54.33,103.54l.1.18h0"/><path class="cls-12" d="M41.54,111.9a.08.08,0,0,1,0-.07l5.2-12.12a15.47,15.47,0,0,1,4.36.21l.34.28"/><path class="cls-12" d="M41.57,111.92l0,0a0,0,0,0,1,0,0l9.89-11.69.42.37c.26.23.51.48.75.73l.43.48s0,0,.05.06"/><path class="cls-12" d="M54.33,103.54c0,.07.07.13.1.19"/><path class="cls-12" d="M53.39,102.21l-.3-.37.28.33a.05.05,0,0,1,0,0c.1.12.2.24.29.37l.12.17c0,.06.09.11.13.18s.07.09.1.15l.3.46"/><path class="cls-12" d="M54.43,103.73a11.16,11.16,0,0,1,1.08,2.41,10.34,10.34,0,0,1-.21,1.11c-.18.29-.37.58-.59.87l-13.09,3.81a0,0,0,0,1,0,0h0Z"/><text class="cls-13" transform="translate(20.44 64.79)">Graph-It</text></g></g></svg>